HIERARCHY
ROOT hip
{
  OFFSET 0 0 0
  CHANNELS 6 Xposition Yposition Zposition Zrotation Yrotation Xrotation
  JOINT abdomen
  {
    OFFSET 0 20.6881 -0.73152
    CHANNELS 3 Zrotation Xrotation Yrotation
    JOINT chest
    {
      OFFSET 0 11.7043 -0.48768
      CHANNELS 3 Zrotation Xrotation Yrotation
      JOINT neck
      {
        OFFSET 0 22.1894 -2.19456
        CHANNELS 3 Zrotation Xrotation Yrotation
        JOINT head
        {
          OFFSET -0.24384 7.07133 1.2192
          CHANNELS 3 Zrotation Xrotation Yrotation
          JOINT leftEye
          {
            OFFSET 4.14528 8.04674 8.04672
            CHANNELS 3 Zrotation Xrotation Yrotation
            End Site
            {
              OFFSET 1 0 0
            }
          }
          JOINT rightEye
          {
            OFFSET -3.6576 8.04674 8.04672
            CHANNELS 3 Zrotation Xrotation Yrotation
            End Site
            {
              OFFSET 1 0 0
            }
          }
        }
      }
      JOINT rCollar
      {
        OFFSET -2.68224 19.2634 -4.8768
        CHANNELS 3 Zrotation Xrotation Yrotation
        JOINT rShldr
        {
          OFFSET -8.77824 -1.95073 1.46304
          CHANNELS 3 Zrotation Xrotation Yrotation
          JOINT rForeArm
          {
            OFFSET -28.1742 -1.7115 0.48768
            CHANNELS 3 Zrotation Xrotation Yrotation
            JOINT rHand
            {
              OFFSET -22.5879 0.773209 7.07136
              CHANNELS 3 Zrotation Xrotation Yrotation
              JOINT rThumb1
              {
                OFFSET -1.2192 -0.487915 3.41376
                CHANNELS 3 Zrotation Xrotation Yrotation
                JOINT rThumb2
                {
                  OFFSET -3.37035 -0.52449 3.41376
                  CHANNELS 3 Zrotation Xrotation Yrotation
                  End Site
                  {
                    OFFSET -1.78271 -1.18214 1.43049
                  }
                }
              }
              JOINT rIndex1
              {
                OFFSET -7.75947 0.938293 5.60832
                CHANNELS 3 Zrotation Xrotation Yrotation
                JOINT rIndex2
                {
                  OFFSET -2.54057 -0.884171 1.56538
                  CHANNELS 3 Zrotation Xrotation Yrotation
                  End Site
                  {
                    OFFSET -1.62519 -0.234802 1.16502
                  }
                }
              }
              JOINT rMid1
              {
                OFFSET -8.24714 1.18213 3.41376
                CHANNELS 3 Zrotation Xrotation Yrotation
                JOINT rMid2
                {
                  OFFSET -3.10165 -0.590103 1.0647
                  CHANNELS 3 Zrotation Xrotation Yrotation
                  End Site
                  {
                    OFFSET -2.48547 -0.328903 0.83742
                  }
                }
              }
              JOINT rRing1
              {
                OFFSET -8.82822 0.546677 1.51678
                CHANNELS 3 Zrotation Xrotation Yrotation
                JOINT rRing2
                {
                  OFFSET -2.60934 -0.819778 -0.0198488
                  CHANNELS 3 Zrotation Xrotation Yrotation
                  End Site
                  {
                    OFFSET -2.33842 -0.294052 0.168128
                  }
                }
              }
              JOINT rPinky1
              {
                OFFSET -8.27202 -0.0477905 -0.4584
                CHANNELS 3 Zrotation Xrotation Yrotation
                JOINT rPinky2
                {
                  OFFSET -1.82734 -0.647385 -0.700984
                  CHANNELS 3 Zrotation Xrotation Yrotation
                  End Site
                  {
                    OFFSET -1.69225 -0.51767 -0.607171
                  }
                }
              }
            }
          }
        }
      }
      JOINT lCollar
      {
        OFFSET 2.68224 19.2634 -4.8768
        CHANNELS 3 Zrotation Xrotation Yrotation
        JOINT lShldr
        {
          OFFSET 8.77824 -1.95073 1.46304
          CHANNELS 3 Zrotation Xrotation Yrotation
          JOINT lForeArm
          {
            OFFSET 28.1742 -1.7115 0.48768
            CHANNELS 3 Zrotation Xrotation Yrotation
            JOINT lHand
            {
              OFFSET 22.5879 0.773209 7.07136
              CHANNELS 3 Zrotation Xrotation Yrotation
              JOINT lThumb1
              {
                OFFSET 1.2192 -0.487915 3.41376
                CHANNELS 3 Zrotation Xrotation Yrotation
                JOINT lThumb2
                {
                  OFFSET 3.37035 -0.52449 3.41376
                  CHANNELS 3 Zrotation Xrotation Yrotation
                  End Site
                  {
                    OFFSET 1.78271 -1.18214 1.43049
                  }
                }
              }
              JOINT lIndex1
              {
                OFFSET 7.75947 0.938293 5.60832
                CHANNELS 3 Zrotation Xrotation Yrotation
                JOINT lIndex2
                {
                  OFFSET 2.54057 -0.884171 1.56538
                  CHANNELS 3 Zrotation Xrotation Yrotation
                  End Site
                  {
                    OFFSET 1.62519 -0.234802 1.16502
                  }
                }
              }
              JOINT lMid1
              {
                OFFSET 8.24714 1.18213 3.41376
                CHANNELS 3 Zrotation Xrotation Yrotation
                JOINT lMid2
                {
                  OFFSET 3.10165 -0.590103 1.0647
                  CHANNELS 3 Zrotation Xrotation Yrotation
                  End Site
                  {
                    OFFSET 2.48547 -0.328903 0.83742
                  }
                }
              }
              JOINT lRing1
              {
                OFFSET 8.82822 0.546677 1.51678
                CHANNELS 3 Zrotation Xrotation Yrotation
                JOINT lRing2
                {
                  OFFSET 2.60934 -0.819778 -0.0198488
                  CHANNELS 3 Zrotation Xrotation Yrotation
                  End Site
                  {
                    OFFSET 2.33842 -0.294052 0.168128
                  }
                }
              }
              JOINT lPinky1
              {
                OFFSET 8.27202 -0.0477905 -0.4584
                CHANNELS 3 Zrotation Xrotation Yrotation
                JOINT lPinky2
                {
                  OFFSET 1.82734 -0.647385 -0.700984
                  CHANNELS 3 Zrotation Xrotation Yrotation
                  End Site
                  {
                    OFFSET 1.69225 -0.51767 -0.607171
                  }
                }
              }
            }
          }
        }
      }
    }
  }
  JOINT rButtock
  {
    OFFSET -8.77824 4.35084 1.2192
    CHANNELS 3 Zrotation Xrotation Yrotation
    JOINT rThigh
    {
      OFFSET 0 -1.70687 -2.19456
      CHANNELS 3 Zrotation Xrotation Yrotation
      JOINT rShin
      {
        OFFSET 0 -36.8199 0.73152
        CHANNELS 3 Zrotation Xrotation Yrotation
        JOINT rFoot
        {
          OFFSET 0.73152 -45.1104 -5.12064
          CHANNELS 3 Zrotation Xrotation Yrotation
          End Site
          {
            OFFSET -1.1221 -3.69964 12.103
          }
        }
      }
    }
  }
  JOINT lButtock
  {
    OFFSET 8.77824 4.35084 1.2192
    CHANNELS 3 Zrotation Xrotation Yrotation
    JOINT lThigh
    {
      OFFSET 0 -1.70687 -2.19456
      CHANNELS 3 Zrotation Xrotation Yrotation
      JOINT lShin
      {
        OFFSET 0 -36.8199 0.73152
        CHANNELS 3 Zrotation Xrotation Yrotation
        JOINT lFoot
        {
          OFFSET -0.73152 -45.1104 -5.12064
          CHANNELS 3 Zrotation Xrotation Yrotation
          End Site
          {
            OFFSET 1.1221 -3.69964 12.103
          }
        }
      }
    }
  }
}
MOTION
Frames:	4
Frame Time:	0.00833333
139.867 85.0697 -187.562 0.0 0.0 0.0 0.202514 -0.00063907 0.00577305 0.0558296 -0.000931032 0.00967166 5.53489e-15 0.0 -6.21206e-18 1.66234e-14 3.18055e-15 -3.10601e-17 -0.0 0.0 0.0 -0.0 0.0 0.0 2.83144e-15 -1.16475e-18 1.98785e-16 6.00217e-14 1.86361e-17 7.95139e-16 1.00565e-12 -2.99171e-13 -1.90833e-14 1.14846e-11 3.01382e-13 3.18055e-15 2.7092e-11 1.28404e-15 -2.22639e-14 4.67848e-11 -3.18055e-15 -4.21423e-14 2.70955e-11 0.0 -2.54444e-14 7.73091 5.47488 0.417314 2.70909e-11 6.95746e-16 -1.90833e-14 2.90554 0.965183 0.102902 2.70962e-11 1.2921e-15 -2.3059e-14 10.2786 0.731801 0.0259123 2.70818e-11 3.18055e-15 -9.54166e-15 2.22167 -0.733487 -0.20892 2.63532e-15 -1.74713e-18 -1.98785e-16 5.72959e-14 6.21202e-18 -5.96354e-16 1.00028e-12 3.01159e-13 -9.54166e-15 1.14806e-11 -2.98152e-13 9.54166e-15 2.7079e-11 6.26751e-15 -2.22639e-14 4.67732e-11 6.36111e-15 -3.26007e-14 2.70745e-11 6.36111e-15 -9.54166e-15 -7.73091 5.47488 -0.417314 2.70793e-11 5.86415e-15 -2.22639e-14 -2.90554 0.965183 -0.102902 2.70756e-11 5.86415e-15 -1.90833e-14 -10.2786 0.731801 -0.0259123 2.70856e-11 9.1441e-15 -2.8625e-14 -2.22167 -0.733487 0.20892 -2.03217e-16 0.0 -3.88251e-19 0.677481 -3.60114 -0.0536492 -0.00454014 0.970125 -0.0387443 -0.524685 2.63023 0.113976 2.03217e-16 0.0 3.88251e-19 -0.369395 -2.81566 0.0342634 0.00682581 -0.452699 0.0599322 0.522492 3.26753 -0.126813
139.055 83.054 -189.912 -3.5451 -0.2317 9.1841 1.85299 -2.22238 -0.59334 -0.466368 0.991136 -0.180827 -0.217849 1.50511 -0.862862 0.652603 -6.94037 -1.53987 -0.0 0.0 0.0 -0.0 0.0 0.0 -6.19745e-14 -9.81591e-15 6.62823e-15 20.1626 18.1582 -1.3675 -22.4958 -20.3642 14.9667 0.0679277 -5.83804 -0.805594 -8.06852e-11 1.48257e-09 -4.02851e-10 -1.34167e-10 2.55852e-09 -6.96795e-10 -8.06816e-11 1.48256e-09 -4.02857e-10 7.73091 5.47488 0.417314 -8.06865e-11 1.48257e-09 -4.02849e-10 2.90554 0.965183 0.102902 -8.06811e-11 1.48256e-09 -4.02851e-10 10.2786 0.731801 0.0259123 -8.06956e-11 1.48257e-09 -4.02838e-10 2.22167 -0.733487 -0.20892 -6.21434e-14 -9.81625e-15 6.25667e-15 -21.9155 12.8896 0.641854 6.20801 -3.37501 -9.01884 -0.0301265 -3.85172 0.536914 6.41545e-10 5.76153e-10 -1.63239e-11 1.10873e-09 9.99752e-10 -2.23221e-11 6.41539e-10 5.76154e-10 -1.63167e-11 -7.73091 5.47488 -0.417314 6.41543e-10 5.76151e-10 -1.63267e-11 -2.90554 0.965183 -0.102902 6.41541e-10 5.76152e-10 -1.63227e-11 -10.2786 0.731801 -0.0259123 6.41551e-10 5.76155e-10 -1.63312e-11 -2.22167 -0.733487 0.20892 -2.03217e-16 0.0 -3.88251e-19 2.1681 -9.41911 0.143197 0.00928324 9.24002 0.100531 -0.762804 -1.37305 -1.98073 2.03217e-16 0.0 3.88251e-19 0.359047 -10.2194 0.675641 0.00353228 9.78918 -0.0817386 0.42446 -1.17155 -0.898059
139.051 83.0503 -189.918 -3.5528 -0.2858 9.2301 3.54516 -4.56768 -1.23222 -1.00932 2.03916 -0.383117 -0.399596 3.09289 -1.77703 0.92723 -14.2555 -3.24421 -0.0 0.0 0.0 -0.0 0.0 0.0 -1.33067e-13 -1.88852e-14 1.28465e-14 42.6424 37.264 -3.3745 -32.8145 -36.8645 37.0621 -0.0438337 -12.0956 -1.69835 -2.00218e-10 3.02153e-09 -8.21398e-10 -3.35178e-10 5.21416e-09 -1.42076e-09 -2.00214e-10 3.02152e-09 -8.21407e-10 7.73091 5.47488 0.417314 -2.00219e-10 3.02153e-09 -8.21398e-10 2.90554 0.965183 0.102902 -2.00214e-10 3.02152e-09 -8.21397e-10 10.2786 0.731801 0.0259123 -2.00228e-10 3.02153e-09 -8.21385e-10 2.22167 -0.733487 -0.20892 -1.33208e-13 -1.88853e-14 1.25017e-14 -45.4297 26.5112 1.43834 11.6286 -6.66342 -18.6506 0.0172074 -7.9232 1.11275 1.31897e-09 1.2152e-09 -3.30827e-11 2.27956e-09 2.10868e-09 -4.48177e-11 1.31896e-09 1.2152e-09 -3.30815e-11 -7.73091 5.47488 -0.417314 1.31896e-09 1.2152e-09 -3.30887e-11 -2.90554 0.965183 -0.102902 1.31896e-09 1.2152e-09 -3.30836e-11 -10.2786 0.731801 -0.0259123 1.31898e-09 1.2152e-09 -3.30911e-11 -2.22167 -0.733487 0.20892 -2.03217e-16 0.0 -3.88251e-19 3.79137 -15.5684 0.369777 -0.0217523 17.9838 0.257696 -1.33503 -5.58772 -4.22224 2.03217e-16 0.0 3.88251e-19 1.32017 -18.039 1.40283 0.0581407 20.6147 -0.244671 0.189375 -5.86165 -1.72676
139.041 83.0478 -189.928 -3.5794 -0.337 9.284 5.01378 -6.66294 -1.8024 -1.49095 2.97514 -0.562502 -0.517239 4.51124 -2.59574 0.773978 -20.7588 -4.90488 -0.0 0.0 0.0 -0.0 0.0 0.0 -1.91586e-13 -2.94454e-14 1.94871e-14 64.6513 54.3038 -6.69086 -30.6378 -41.4605 63.3123 -0.308894 -17.4999 -2.521 -2.9624e-10 4.4477e-09 -1.20851e-09 -4.96071e-10 7.67557e-09 -2.0903e-09 -2.96236e-10 4.44769e-09 -1.20852e-09 7.73091 5.47488 0.417314 -2.96241e-10 4.4477e-09 -1.20851e-09 2.90554 0.965183 0.102902 -2.96236e-10 4.44769e-09 -1.20851e-09 10.2786 0.731801 0.0259123 -2.9625e-10 4.44771e-09 -1.2085e-09 2.22167 -0.733487 -0.20892 -1.91701e-13 -2.94453e-14 1.91676e-14 -66.8187 38.6467 2.40362 15.5348 -9.12322 -27.384 0.129965 -11.551 1.64033 1.87048e-09 1.72845e-09 -4.89271e-11 3.23264e-09 2.99924e-09 -6.69011e-11 1.87047e-09 1.72845e-09 -4.89309e-11 -7.73091 5.47488 -0.417314 1.87047e-09 1.72844e-09 -4.89356e-11 -2.90554 0.965183 -0.102902 1.87047e-09 1.72845e-09 -4.89298e-11 -10.2786 0.731801 -0.0259123 1.87048e-09 1.72845e-09 -4.89363e-11 -2.22167 -0.733487 0.20892 -2.03217e-16 0.0 -3.88251e-19 5.27667 -21.0542 0.568865 -0.0945244 25.7793 0.416621 -2.12414 -9.32728 -6.25118 2.03217e-16 0.0 3.88251e-19 2.35887 -25.0137 2.12579 0.167216 30.2723 -0.418586 -0.134433 -10.041 -2.47838
